<?xml version="1.0" ?>

<!-- Uploaded to: SVG Repo, www.svgrepo.com, Generator: SVG Repo Mixer Tools -->
<svg width="800px" height="800px" viewBox="0 0 100 100" data-name="Layer 1" id="Layer_1" xmlns="http://www.w3.org/2000/svg">

<defs>

<style>
      .cls-1 {
        fill: none;
        stroke: #231f20;
        stroke-miterlimit: 10;
        stroke-width: 2px;
      }

      .cls-2 {
        fill: #231f20;
      }
    </style>

</defs>

<g>

<path class="cls-1" d="M23.13,35.26v-15.12c0-1.36,1.1-2.46,2.46-2.46h10.41s.06,0,.09,0h.03c.66-.03,1.33,.21,1.84,.71l5.88,5.88-3.48,3.48-5.15-5.15h-7.15v28.08h-4.92v-14.15"/>

<path class="cls-1" d="M54.06,27.96l-10.02,10.02-4.28-4.29c-1.47-1.47-1.47-3.86,0-5.34l4.69-4.69c1.47-1.47,3.86-1.47,5.34,0l4.28,4.29Z"/>

<path class="cls-1" d="M56.76,29.41c0,.44-.17,.88-.51,1.22l-9.54,9.55c-.67,.67-1.76,.67-2.44,0-.34-.34-.51-.78-.51-1.22s.17-.88,.51-1.22l9.54-9.54c.67-.67,1.76-.67,2.44,0,.34,.34,.51,.78,.51,1.22Z"/>

</g>

<g>

<rect class="cls-2" height="2.84" width="1.16" x="52.61" y="42.88"/>

<g>

<g>

<rect class="cls-2" height="2.84" width="1.16" x="49.92" y="40.04"/>

<rect class="cls-2" height="2.84" width="1.16" x="49.92" y="45.72"/>

<rect class="cls-2" height=".23" width="1.16" x="49.92" y="59.7"/>

</g>

<g>

<rect class="cls-2" height="2.84" width="1.16" x="55.43" y="40.27"/>

<rect class="cls-2" height="2.84" width="1.16" x="55.43" y="45.95"/>

<rect class="cls-2" height=".45" width="1.16" x="55.42" y="59.7"/>

</g>

<rect class="cls-2" height="2.12" width="1.16" x="52.62" y="48.56"/>

</g>

</g>

<path class="cls-1" d="M83.29,55.2c0,1.24-.5,2.37-1.32,3.18-.82,.82-1.94,1.32-3.18,1.32H23.22c-2.49,0-4.5-2.01-4.5-4.5,0-1.24,.5-2.37,1.32-3.19,.79-.79,1.88-1.3,3.09-1.32h55.66c2.49,0,4.5,2.02,4.5,4.51Z"/>

<path class="cls-1" d="M78.36,65.67v8.78c0,5.01-4.06,9.06-9.06,9.06H33.36c-5.01,0-9.07-4.05-9.07-9.06v-14.75h54.07v5"/>

</svg>