<?xml version="1.0" ?><!-- Uploaded to: SVG Repo, www.svgrepo.com, Generator: SVG Repo Mixer Tools -->
<svg fill="#000000" width="800px" height="800px" viewBox="0 0 100 100" data-name="Layer 1" id="Layer_1" xmlns="http://www.w3.org/2000/svg"><path d="M28.21,29a1.26,1.26,0,0,0,.88-.37,1.23,1.23,0,0,0,.37-.88,1.26,1.26,0,0,0-.37-.89A1.25,1.25,0,0,0,27,27.7,1.26,1.26,0,0,0,28.21,29Z"/><path d="M27.06,34.13a1.51,1.51,0,0,0,.11.22,1.46,1.46,0,0,0,.16.19,1.23,1.23,0,0,0,1.76,0,1.23,1.23,0,0,0,.37-.88,2.11,2.11,0,0,0,0-.25,1.21,1.21,0,0,0-.19-.45c-.05-.06-.1-.13-.16-.19a1.29,1.29,0,0,0-1.76,0c-.06.06-.11.13-.16.19a1.51,1.51,0,0,0-.11.22.88.88,0,0,0-.07.23,1.07,1.07,0,0,0,0,.25,1,1,0,0,0,0,.24A.88.88,0,0,0,27.06,34.13Z"/><path d="M31.19,31.93a1.3,1.3,0,0,0,.89-.37,1.25,1.25,0,0,0,.36-.88,2.11,2.11,0,0,0,0-.25,1.21,1.21,0,0,0-.19-.45l-.15-.19a1.31,1.31,0,0,0-1.77,0,1.46,1.46,0,0,0-.16.19,1.51,1.51,0,0,0-.11.22.88.88,0,0,0-.07.23,1.07,1.07,0,0,0,0,.25,1.26,1.26,0,0,0,1.25,1.25Z"/><path d="M24.54,31.72l.21.11a1.09,1.09,0,0,0,.24.07,1,1,0,0,0,.24,0l.25,0a1.19,1.19,0,0,0,.23-.07l.21-.11a1,1,0,0,0,.19-.16,1.22,1.22,0,0,0,.37-.88,2.11,2.11,0,0,0,0-.25.9.9,0,0,0-.08-.23,1.51,1.51,0,0,0-.11-.22,1.46,1.46,0,0,0-.16-.19.7.7,0,0,0-.19-.15.88.88,0,0,0-.21-.12l-.23-.07a1.27,1.27,0,0,0-1.13.34,1.46,1.46,0,0,0-.16.19,1.51,1.51,0,0,0-.11.22.88.88,0,0,0-.07.23,1.07,1.07,0,0,0,0,.25,1.22,1.22,0,0,0,.37.88A1,1,0,0,0,24.54,31.72Z"/><path d="M65.06,75.19a.94.94,0,0,0,.22.12l.23.07a1,1,0,0,0,.25,0,1,1,0,0,0,.24,0l.23-.07a.94.94,0,0,0,.22-.12.9.9,0,0,0,.19-.15,1.28,1.28,0,0,0,.37-.89,1,1,0,0,0,0-.24.88.88,0,0,0-.07-.23.94.94,0,0,0-.12-.22.9.9,0,0,0-.15-.19l-.19-.16L66.23,73a.88.88,0,0,0-.23-.07,1.27,1.27,0,0,0-1.13.34.9.9,0,0,0-.15.19.94.94,0,0,0-.12.22,1.55,1.55,0,0,0-.07.23,1,1,0,0,0,0,.24,1.3,1.3,0,0,0,.37.89A.9.9,0,0,0,65.06,75.19Z"/><path d="M64.53,80.36a1.55,1.55,0,0,0,.07.23.94.94,0,0,0,.12.22,1,1,0,0,0,.34.34.94.94,0,0,0,.22.12l.23.07a1,1,0,0,0,.25,0,1,1,0,0,0,.24,0l.23-.07a.94.94,0,0,0,.22-.12,1,1,0,0,0,.34-.34.94.94,0,0,0,.12-.22.88.88,0,0,0,.07-.23,1,1,0,0,0,0-.25,1.28,1.28,0,0,0-.37-.88l-.19-.16a1.51,1.51,0,0,0-.22-.11.88.88,0,0,0-.23-.07,1.35,1.35,0,0,0-.49,0,.88.88,0,0,0-.23.07,1.51,1.51,0,0,0-.22.11l-.19.16a1.28,1.28,0,0,0-.37.88A1,1,0,0,0,64.53,80.36Z"/><path d="M69,78.36l.23-.07a.94.94,0,0,0,.22-.12.9.9,0,0,0,.19-.15,1.46,1.46,0,0,0,.16-.19,1.51,1.51,0,0,0,.11-.22.88.88,0,0,0,.07-.23,1,1,0,0,0,0-.25,1.25,1.25,0,0,0-1.5-1.22l-.23.07a.94.94,0,0,0-.22.12,1,1,0,0,0-.34.34.94.94,0,0,0-.12.22,1.55,1.55,0,0,0-.07.23,1,1,0,0,0,0,.24,1.23,1.23,0,0,0,1.25,1.25A1,1,0,0,0,69,78.36Z"/><path d="M63.81,76.44a1,1,0,0,0-.34-.34.94.94,0,0,0-.22-.12L63,75.91a1.27,1.27,0,0,0-1.13.34,1.24,1.24,0,0,0,0,1.77A1.26,1.26,0,0,0,64,77.13a1,1,0,0,0,0-.24.88.88,0,0,0-.07-.23A.94.94,0,0,0,63.81,76.44Z"/><path d="M29.94,45v27.8a9,9,0,0,0,9,9H49a9,9,0,0,0,8.95-9V71.31L74.19,69a1.25,1.25,0,0,0-.35-2.47L53.69,69.39a10.33,10.33,0,0,1-6.39-2.11l-9-6.93A.88.88,0,0,1,38,59.7a.85.85,0,0,1,.26-.68,3.93,3.93,0,0,1,5-.47l5.12,3.5s.08,0,.11.06a6.1,6.1,0,0,0-.25,3.73,2.59,2.59,0,0,0,1.68,1.74,3.55,3.55,0,0,0,1.15.19,3.81,3.81,0,0,0,2-.6,15,15,0,0,1,6.25-2.24L66,64.14a1.25,1.25,0,1,0-.29-2.48L59,62.45a17.39,17.39,0,0,0-7.31,2.62,1.28,1.28,0,0,1-1.06.14c-.3-.29-.16-2.15.62-3.21,0,0,0,0,0,0l6.43-4.41a5.67,5.67,0,0,1,3.79-1l8.27.82,4.2.12A1.25,1.25,0,1,0,74.05,55l-4.11-.12-8.18-.82a8.16,8.16,0,0,0-3.37.37l-.45-.31V45a9,9,0,0,0-7.28-8.84V27a1.25,1.25,0,0,0-1.25-1.25H38.48A1.25,1.25,0,0,0,37.23,27v9.2A9,9,0,0,0,29.94,45Zm14.7,11.47a6.42,6.42,0,0,0-4.57-1l0,0-1.74-1.5a1.16,1.16,0,0,1-.39-.8,1.12,1.12,0,0,1,.31-.83,4,4,0,0,1,5.28-.42l8.55,6.54L49.76,60Zm11.25-.71-1.66,1.14L47.79,52a4.21,4.21,0,0,1,3.88.81ZM39.73,28.23h8.43V36H39.73ZM39,38.51h10A6.52,6.52,0,0,1,55.44,45V52.4l-2.29-1.6a6.78,6.78,0,0,0-7.63-.54L45,49.88a6.44,6.44,0,0,0-8.62.7,3.52,3.52,0,0,0-1,2.67,3.57,3.57,0,0,0,1.25,2.56l.75.65a6.17,6.17,0,0,0-1,.79,3.4,3.4,0,0,0,.33,5.08l9,6.93a12.71,12.71,0,0,0,7.73,2.63h.31l.14,0,1.48-.2v1.15A6.45,6.45,0,0,1,49,79.27H38.89a6.45,6.45,0,0,1-6.45-6.45V45A6.52,6.52,0,0,1,39,38.51Z"/><path d="M38.48,23.51H62.15a1.25,1.25,0,0,0,0-2.5H38.48a1.25,1.25,0,0,0,0,2.5Z"/><path d="M62.08,44.23l.26.26a5.53,5.53,0,0,0,7.84,0,5.58,5.58,0,0,0,.75-6.91l-4.15-6.49a1.25,1.25,0,0,0-2.15.08l-3.51,6.5A5.56,5.56,0,0,0,62.08,44.23Zm1.24-5.37,2.5-4.63,3,4.7a3.06,3.06,0,0,1-.42,3.79,3.12,3.12,0,0,1-4.31,0l-.26-.26A3.06,3.06,0,0,1,63.32,38.86Z"/></svg>