<?xml version="1.0" standalone="no"?>
<svg viewBox="0 0 200 200" xmlns="http://www.w3.org/2000/svg">
  <path fill="#F2F4F8" d="M36.7,-60.1C43.2,-53,40.9,-35.3,40,-22.6C39,-9.9,39.4,-2.1,40.4,7.3C41.3,16.6,42.8,27.5,38.3,33.8C33.8,40.1,23.3,41.8,11.8,49.4C0.3,57,-12.2,70.5,-18.8,67.1C-25.4,63.7,-26.1,43.5,-29.7,30.6C-33.3,17.7,-39.7,12.2,-48.6,2.2C-57.5,-7.7,-68.7,-22.1,-64.2,-28.3C-59.8,-34.4,-39.6,-32.3,-26.3,-36.3C-12.9,-40.2,-6.5,-50.3,4.3,-57C15.1,-63.8,30.3,-67.2,36.7,-60.1Z" transform="translate(100 100)" />
</svg>
