<?xml version="1.0" standalone="no"?>
<svg viewBox="0 0 200 200" xmlns="http://www.w3.org/2000/svg">
  <path fill="#9EF0F0" d="M34.5,-54.7C48.7,-51.6,66.9,-50.4,76.7,-41.6C86.4,-32.8,87.7,-16.4,86.5,-0.7C85.3,15,81.7,30,74.3,42.9C66.9,55.9,55.8,66.7,42.8,75.4C29.8,84.1,14.9,90.7,2.8,85.9C-9.4,81.1,-18.7,64.9,-31.3,55.9C-43.8,46.9,-59.6,45.2,-65.6,37.1C-71.6,29,-67.8,14.5,-64,2.2C-60.1,-10,-56.1,-20,-49.9,-27.9C-43.8,-35.7,-35.4,-41.3,-26.7,-47.7C-18.1,-54,-9,-61.1,0.6,-62.1C10.2,-63.1,20.3,-57.9,34.5,-54.7Z" transform="translate(100 100)" />
</svg>
